<?xml version="1.0" encoding="utf-8"?>
<!-- Generator: Adobe Illustrator 25.2.3, SVG Export Plug-In . SVG Version: 6.00 Build 0)  -->
<svg version="1.1" id="Layer_1" xmlns="http://www.w3.org/2000/svg" xmlns:xlink="http://www.w3.org/1999/xlink" x="0px" y="0px"
	 viewBox="0 0 30 30" style="enable-background:new 0 0 30 30;" xml:space="preserve">
<style type="text/css">
	.st0{fill:#2C3138;}
</style>
<g>
	<g>
		<path class="st0" d="M26.6,17c-0.3-0.1-0.5,0-0.7,0.2c-0.8,0.7-1.8,1.3-2.8,1.6c-1,0.4-2,0.6-3.2,0.6c-2.6,0-4.9-1-6.6-2.7
			s-2.7-4-2.7-6.6C10.7,9,10.8,8,11.2,7c0.3-1,0.9-1.9,1.5-2.7C13,4,12.9,3.5,12.5,3.2C12.3,3,12.1,3,11.8,3c-2.7,0.7-5,2.3-6.7,4.5
			c-1.6,2.1-2.6,4.7-2.6,7.6c0,3.4,1.4,6.6,3.7,8.8s5.4,3.7,8.8,3.7c2.9,0,5.6-1,7.7-2.7c2.2-1.7,3.8-4.1,4.4-6.9
			C27.3,17.5,27.1,17.1,26.6,17z M21.8,23.6c-1.8,1.4-4.2,2.3-6.7,2.3c-3,0-5.7-1.2-7.7-3.2s-3.2-4.7-3.2-7.7c0-2.5,0.8-4.8,2.2-6.6
			c1-1.3,2.2-2.3,3.6-3C10,5.8,9.8,6.1,9.7,6.5c-0.4,1.1-0.6,2.3-0.6,3.6c0,3,1.2,5.7,3.2,7.7S17,21,20,21c1.3,0,2.6-0.2,3.8-0.7
			c0.4-0.2,0.8-0.3,1.2-0.5C24.1,21.3,23.1,22.6,21.8,23.6z"/>
	</g>
</g>
</svg>
