<?xml version="1.0" encoding="utf-8"?>
<!-- Generator: Adobe Illustrator 25.2.3, SVG Export Plug-In . SVG Version: 6.00 Build 0)  -->
<svg version="1.1" id="Layer_1" xmlns="http://www.w3.org/2000/svg" xmlns:xlink="http://www.w3.org/1999/xlink" x="0px" y="0px"
	 viewBox="0 0 30 30" style="enable-background:new 0 0 30 30;" xml:space="preserve">
<style type="text/css">
	.st0{fill:#FFFFFF;}
</style>
<g>
	<g>
		<path class="st0" d="M27.2,17.5c-0.3-0.1-0.5,0-0.7,0.2c-0.8,0.7-1.8,1.3-2.8,1.6c-1,0.4-2,0.6-3.2,0.6c-2.6,0-4.9-1-6.6-2.7
			s-2.7-4-2.7-6.6c0.1-1.1,0.2-2.1,0.6-3.1c0.3-1,0.9-1.9,1.5-2.7c0.3-0.3,0.2-0.8-0.2-1.1c-0.2-0.2-0.4-0.2-0.7-0.2
			C9.7,4.2,7.4,5.8,5.7,8c-1.6,2.1-2.6,4.7-2.6,7.6c0,3.4,1.4,6.6,3.7,8.8s5.4,3.7,8.8,3.7c2.9,0,5.6-1,7.7-2.7
			c2.2-1.7,3.8-4.1,4.4-6.9C27.9,18,27.7,17.6,27.2,17.5z M22.4,24.1c-1.8,1.4-4.2,2.3-6.7,2.3c-3,0-5.7-1.2-7.7-3.2
			s-3.2-4.7-3.2-7.7c0-2.5,0.8-4.8,2.2-6.6c1-1.3,2.2-2.3,3.6-3c0,0.4-0.2,0.7-0.3,1.1c-0.4,1.1-0.6,2.3-0.6,3.6
			c0,3,1.2,5.7,3.2,7.7s4.7,3.2,7.7,3.2c1.3,0,2.6-0.2,3.8-0.7c0.4-0.2,0.8-0.3,1.2-0.5C24.7,21.8,23.7,23.1,22.4,24.1z"/>
	</g>
</g>
</svg>
