<?xml version="1.0" encoding="utf-8"?>
<!-- Generator: Adobe Illustrator 25.2.3, SVG Export Plug-In . SVG Version: 6.00 Build 0)  -->
<svg version="1.1" id="Layer_1" xmlns="http://www.w3.org/2000/svg" xmlns:xlink="http://www.w3.org/1999/xlink" x="0px" y="0px"
	 viewBox="0 0 30 30" style="enable-background:new 0 0 30 30;" xml:space="preserve">
<style type="text/css">
	.st0{fill:#2B2218;}
</style>
<g>
	<g>
		<g>
			<path class="st0" d="M19.9,11.3c-1.1-1.1-2.7-1.9-4.4-1.9s-3.3,0.7-4.4,1.9c-1.1,1.1-1.9,2.7-1.9,4.4s0.7,3.3,1.9,4.4
				s2.7,1.9,4.4,1.9s3.3-0.7,4.4-1.9c1.1-1.1,1.9-2.7,1.9-4.4S21.1,12.4,19.9,11.3z M18.7,19c-0.8,0.8-2,1.3-3.2,1.3
				c-1.3,0-2.4-0.5-3.2-1.3c-0.8-0.8-1.3-2-1.3-3.2s0.5-2.4,1.3-3.2c0.8-0.8,2-1.3,3.2-1.3c1.3,0,2.4,0.5,3.2,1.3
				c0.8,0.8,1.3,2,1.3,3.2S19.6,18.1,18.7,19z"/>
		</g>
	</g>
	<g>
		<g>
			<path class="st0" d="M27.1,14.9h-2.5c-0.5,0-0.9,0.4-0.9,0.9c0,0.5,0.4,0.9,0.9,0.9h2.5c0.5,0,0.9-0.4,0.9-0.9
				C28,15.3,27.6,14.9,27.1,14.9z"/>
		</g>
	</g>
	<g>
		<g>
			<path class="st0" d="M15.5,24c-0.5,0-0.9,0.4-0.9,0.9v2.5c0,0.5,0.4,0.9,0.9,0.9s0.9-0.4,0.9-0.9v-2.5C16.4,24.4,16,24,15.5,24z"
				/>
		</g>
	</g>
	<g>
		<g>
			<path class="st0" d="M24.3,23.4l-1.8-1.8c-0.3-0.3-0.9-0.3-1.2,0s-0.3,0.9,0,1.2l1.8,1.8c0.3,0.3,0.9,0.3,1.2,0
				S24.7,23.7,24.3,23.4z"/>
		</g>
	</g>
	<g>
		<g>
			<path class="st0" d="M15.5,3.2c-0.5,0-0.9,0.4-0.9,0.9v2.5c0,0.5,0.4,0.9,0.9,0.9s0.9-0.4,0.9-0.9V4.1C16.4,3.6,16,3.2,15.5,3.2z
				"/>
		</g>
	</g>
	<g>
		<g>
			<path class="st0" d="M24.4,6.9c-0.3-0.3-0.9-0.3-1.2,0l-1.8,1.8C21,9,21,9.6,21.3,9.9c0.3,0.3,0.9,0.3,1.2,0l1.8-1.8
				C24.7,7.8,24.7,7.2,24.4,6.9z"/>
		</g>
	</g>
	<g>
		<g>
			<path class="st0" d="M6.4,14.9H3.8c-0.5,0-0.9,0.4-0.9,0.9c0,0.5,0.4,0.9,0.9,0.9h2.5c0.5,0,0.9-0.4,0.9-0.9
				C7.3,15.3,6.9,14.9,6.4,14.9z"/>
		</g>
	</g>
	<g>
		<g>
			<path class="st0" d="M9.6,21.6c-0.3-0.3-0.9-0.3-1.2,0l-1.8,1.8c-0.3,0.3-0.3,0.9,0,1.2c0.3,0.3,0.9,0.3,1.2,0l1.8-1.8
				C10,22.4,10,21.9,9.6,21.6z"/>
		</g>
	</g>
	<g>
		<g>
			<path class="st0" d="M9.6,8.7L7.8,6.9C7.5,6.6,7,6.6,6.6,6.9c-0.3,0.3-0.3,0.9,0,1.2l1.8,1.8c0.3,0.3,0.9,0.3,1.2,0S10,9,9.6,8.7
				z"/>
		</g>
	</g>
</g>
</svg>
